<?xml version="1.0" encoding="utf-8"?>
<svg width="32" height="32" xmlns="http://www.w3.org/2000/svg">
  <g>
    <path style="stroke-dasharray: none; stroke-linecap: butt; stroke-dashoffset: 0; stroke-linejoin: miter; stroke-miterlimit: 4; fill-rule: nonzero; opacity: 1; stroke-width: 0.5px; fill: rgb(255, 255, 255);" paint-order="stroke" d="M 5.532 1.778 L 26.468 1.778 C 28.542 1.778 30.222 3.458 30.222 5.532 L 30.222 26.468 C 30.222 28.54 28.542 30.222 26.468 30.222 L 5.532 30.222 C 3.46 30.222 1.778 28.54 1.778 26.468 L 1.778 5.532 C 1.778 3.458 3.46 1.778 5.532 1.778 Z M 16 16 Z" stroke-linecap="round"></path>
    <path style="stroke: rgb(1,0,0); stroke-width: 0.5; stroke-dasharray: none; stroke-linecap: butt; stroke-dashoffset: 0; stroke-linejoin: miter; stroke-miterlimit: 4; fill: rgb(0,0,0); fill-rule: evenodd; opacity: 1;" d="M 16.03 18.843 C 11.468 18.894 8.558 14.37 10.789 10.697 C 11.851 8.951 13.861 7.877 16.03 7.904 C 20.592 7.954 23.383 12.548 21.052 16.165 C 19.998 17.806 18.096 18.82 16.03 18.843 Z M 16.03 17.751 C 19.68 17.751 21.961 14.105 20.135 11.184 C 19.289 9.829 17.726 8.997 16.03 8.997 C 12.38 8.997 10.1 12.644 11.924 15.561 C 12.772 16.916 14.336 17.751 16.03 17.751 Z M 27.883 29.237 C 28.21 29.237 28.475 28.992 28.475 28.688 L 28.475 27.436 C 28.475 23.908 25.664 21.029 22.16 21.029 L 9.902 21.029 C 6.396 21.029 3.586 23.908 3.586 27.435 L 3.586 28.688 C 3.604 29.111 4.107 29.356 4.494 29.132 C 4.66 29.036 4.763 28.868 4.77 28.688 L 4.77 27.436 C 4.77 24.489 7.079 22.124 9.902 22.124 L 22.16 22.124 C 24.98 22.124 27.291 24.489 27.291 27.436 L 27.291 28.688 C 27.291 28.992 27.556 29.237 27.883 29.237 Z" stroke-linecap="round"></path>
    <path style="stroke: rgb(118,135,66); stroke-width: 0; stroke-dasharray: none; stroke-linecap: butt; stroke-dashoffset: 0; stroke-linejoin: miter; stroke-miterlimit: 1; fill: rgb(198,5,17); fill-opacity: 0.682; fill-rule: nonzero; opacity: 1;" d="M 16.036 1.824 C 5.113 1.824 -1.71 13.676 3.749 23.157 C 9.211 32.638 22.857 32.638 28.318 23.157 C 29.561 20.994 30.219 18.542 30.219 16.046 C 30.21 8.196 23.865 1.833 16.036 1.824 Z M 23.972 20.35 L 11.742 8.087 C 17.852 4.772 25.246 9.33 25.058 16.292 C 25.019 17.712 24.647 19.102 23.972 20.35 Z M 8.096 11.742 L 20.325 24.007 C 14.217 27.321 6.82 22.763 7.01 15.803 C 7.049 14.382 7.422 12.992 8.096 11.746 L 8.096 11.742 Z" stroke-linecap="round"></path>
  </g>
</svg>