<?xml version="1.0" encoding="utf-8"?>
<svg width="32" height="32" xmlns="http://www.w3.org/2000/svg">
  <path fill-rule="evenodd" d="M21.822 28.736C25.058 29.722 28.39 30 30 30c-1.608-1.407-2.515-3.243-3.022-5.31A13.94 13.94 0 0030 16c0-7.732-6.268-14-14-14S2 8.268 2 16s6.268 14 14 14c2.077 0 4.049-.452 5.822-1.264zM17.5 16a1.5 1.5 0 11-3 0 1.5 1.5 0 013 0zM11 17.5a1.5 1.5 0 100-3 1.5 1.5 0 000 3zM22.5 16a1.5 1.5 0 11-3 0 1.5 1.5 0 013 0z" clip-rule="evenodd" style="fill: rgb(255, 255, 255); stroke: rgb(0, 0, 0);"></path>
</svg>