<?xml version="1.0" encoding="utf-8"?>
<svg width="32" height="32" xmlns="http://www.w3.org/2000/svg">
  <g>
    <title>Layer 1</title>
    <path id="svg_1" d="m16,32c8.837,0 16,-7.163 16,-16s-7.163,-16 -16,-16s-16,7.163 -16,16s7.163,16 16,16z" style="fill: rgb(129, 34, 56);"/>
  </g>
  <g style="" transform="matrix(0.837152, 0, 0, 0.744134, 2.612411, 4.099939)">
    <title>Layer 1</title>
    <path id="path-1" clip-rule="evenodd" d="m16.268,13.99l7.722,-7.722a1.611,1.611 0 0 1 2.279,2.279l-7.722,7.721l7.722,7.722a1.611,1.611 0 1 1 -2.279,2.279l-7.721,-7.722l-7.722,7.722a1.611,1.611 0 1 1 -2.279,-2.279l7.722,-7.721l-8.259,-8.26a1.611,1.611 0 1 1 2.279,-2.277l8.258,8.26l0,-0.002z" fill-rule="evenodd" style="fill: rgb(255, 187, 208);"/>
  </g>
</svg>