<?xml version="1.0" encoding="utf-8"?>
<svg width="32" height="32" xmlns="http://www.w3.org/2000/svg">
  <g transform="matrix(1 0 0 1 16 16)" id="Ja3tqZivIs6ps4qtXmvws"  >
    <path style="stroke: none; stroke-width: 1; stroke-dasharray: none; stroke-linecap: butt; stroke-dashoffset: 0; stroke-linejoin: miter; stroke-miterlimit: 4; fill: rgb(255,187,208); fill-rule: nonzero; opacity: 1;"  transform=" translate(-16, -16)" d="M 16 32 C 24.837 32 32 24.837 32 16 C 32 7.163 24.837 0 16 0 C 7.163 0 0 7.163 0 16 C 0 24.837 7.163 32 16 32 z" stroke-linecap="round" />
  </g>
  <g transform="matrix(1.4464511786 0 0 1.4464483606 15.9998126347 17.666535)" id="7VVfpv1A0XUiUwp_1BTfk"  >
    <path style="stroke: none; stroke-width: 1; stroke-dasharray: none; stroke-linecap: butt; stroke-dashoffset: 0; stroke-linejoin: miter; stroke-miterlimit: 4; fill: rgb(129,34,56); fill-rule: evenodd; opacity: 1;"  transform=" translate(-15.9998126347, -16.666495888)" d="M 25.333 14.667 C 25.333265248981508 13.252427206479476 24.771514318582412 11.895700871601889 23.77135406149742 10.89535307274733 C 22.771193804412427 9.895005273892773 21.414572818389168 9.332999975131354 20 9.333 C 18.263791495207503 9.375836789912267 16.707131135826554 10.413740084529515 16 12 C 15.29306282910823 10.413576376740659 13.736285045699063 9.375594789652597 11.999999999999996 9.333 C 10.48433585078783 9.330338475693571 9.039383869532596 9.973804502905804 8.027356463082622 11.102097649881722 C 7.015329056632647 12.230390796857641 6.532171862862923 13.736542808580989 6.699 15.242999999999999 C 7.1639687543317905 20.08173676696053 11.1420487088672 23.827145450098534 16 24 C 20.857220292065954 23.826715969052202 24.8346142884047 20.08197813766058 25.299999999999997 15.244 C 25.321393954494656 15.052402224927311 25.33241004194142 14.859787605024842 25.333000000000002 14.667000000000002 z" stroke-linecap="round" />
  </g>
  <g transform="matrix(1.1266552193 0.3230631855 -0.1958693944 0.6830777553 13.7626565562 17.7437824871)" id="aKRYE4Ikv2hUB53zhI5d5"  >
    <path style="stroke: none; stroke-width: 1; stroke-dasharray: none; stroke-linecap: butt; stroke-dashoffset: 0; stroke-linejoin: miter; stroke-miterlimit: 4; fill: rgb(255,187,208); fill-rule: nonzero; opacity: 1;"  transform=" translate(-11.7699151225, -7.2525537682)" d="M 14.67994 7.23889 L 18.56493 5.55301 C 18.88981 5.381869999999999 19.45355 5.619479999999999 19.5473 5.96819 L 23.52102 14.21926 C 23.64283 14.673070000000001 23.14763 14.54472 22.76287 14.12674 L 17.915779999999998 9.99492 L 14.483619999999998 11.64481 C 14.194909999999998 11.79746 13.718739999999999 11.62716 13.549929999999998 11.34301 C 13.402059999999999 11.31906 13.199399999999997 11.196299999999999 13.020869999999999 11.00328 L 8.39041 7.131550000000001 L 5.14532 9.005040000000001 C 4.83795 9.198300000000001 4.30188 8.99281 4.2103399999999995 8.646820000000002 L 0.022949999999999804 0.4377000000000013 C -0.0958500000000002 -0.01299999999999868 0.2667799999999998 -0.17010999999999865 0.6349999999999998 0.22801000000000132 L 5.29934 4.548770000000001 L 5.29919 4.549190000000001 L 8.97378 2.6117800000000013 C 9.02742 2.5781600000000013 9.08808 2.5566800000000014 9.152149999999999 2.5459700000000014 C 9.229719999999999 2.3423100000000012 9.5148 2.3488200000000012 9.80079 2.6595000000000013 L 14.680109999999999 7.238480000000001 z" stroke-linecap="round" />
  </g>
</svg>