<?xml version="1.0" encoding="utf-8"?>
<svg width="32" height="32" xmlns="http://www.w3.org/2000/svg">
  <defs></defs>
  <g>
    <title>Layer 1</title>
    <g>
      <path id="svg_1" clip-rule="evenodd" d="M 16 32 C 24.837 32 32 24.837 32 16 C 32 7.163 24.837 0 16 0 C 7.163 0 0 7.163 0 16 C 0 24.837 7.163 32 16 32 Z" fill-rule="evenodd" style="fill: rgb(255, 225, 0);"></path>
      <g transform="matrix(1.076937, 0, 0, 1.079663, -1.231026, -1.239254)">
        <title>Layer 1</title>
        <path fill-rule="evenodd" d="M5.37 28.497l-.137.135a1.049 1.049 0 01-1.474-1.493l4.973-4.91.831-3.485-5.903-5.058c-1.086-.93-.8-1.778.627-1.892l7.735-.62 2.985-7.18c.55-1.32 1.435-1.33 1.988 0l2.97 7.143 4.615-4.556a1.049 1.049 0 011.6 1.344L5.494 28.349a1.057 1.057 0 00-.125.148zm20.062-16.886l2.283.183c1.432.114 1.705.968.627 1.892l-5.903 5.058 1.804 7.564c.331 1.39-.397 1.909-1.608 1.169L16 23.424l-6.634 4.053-.01.006 16.075-15.872z" clip-rule="evenodd" style=""></path>
      </g>
    </g>
  </g>
</svg>