<?xml version="1.0" encoding="utf-8"?>
<svg width="32" height="32" xmlns="http://www.w3.org/2000/svg">
  <g>
    <title>Layer 1</title>
    <path id="svg_1" clip-rule="evenodd" d="m16,32c8.837,0 16,-7.163 16,-16s-7.163,-16 -16,-16s-16,7.163 -16,16s7.163,16 16,16z" fill-rule="evenodd" style="fill: rgb(7, 121, 221);"/>
    <path id="svg_2" d="m11.004,22.596a6.817,6.817 0 0 0 2.292,1.463a6.953,6.953 0 0 0 2.608,0.497l0.087,0c1.4,0 2.748,-0.402 3.903,-1.155a6.855,6.855 0 0 0 2.581,-3.072a6.666,6.666 0 0 0 0.402,-3.953a6.82,6.82 0 0 0 -1.916,-3.507a7.09,7.09 0 0 0 -2.266,-1.489a7.19,7.19 0 0 0 -2.678,-0.513l-1.767,0l0,-2.567a0.861,0.861 0 0 0 -0.149,-0.48a0.822,0.822 0 0 0 -0.394,-0.308a0.888,0.888 0 0 0 -0.332,-0.069c-0.061,0 -0.114,0.01 -0.175,0.018a0.894,0.894 0 0 0 -0.446,0.23l-3.5,3.423a0.837,0.837 0 0 0 -0.254,0.608a0.837,0.837 0 0 0 0.254,0.608l3.5,3.422a0.894,0.894 0 0 0 0.446,0.23a0.945,0.945 0 0 0 0.175,0.018a0.888,0.888 0 0 0 0.332,-0.068a0.883,0.883 0 0 0 0.394,-0.317a0.814,0.814 0 0 0 0.149,-0.47l0,-2.567l1.75,0a5.41,5.41 0 0 1 2.459,0.642a5.258,5.258 0 0 1 1.855,1.685a5.126,5.126 0 0 1 0.831,2.336a5,5 0 0 1 -0.385,2.447a5.212,5.212 0 0 1 -1.505,1.984a5.332,5.332 0 0 1 -2.284,1.07a5.41,5.41 0 0 1 -2.537,-0.103a5.252,5.252 0 0 1 -2.188,-1.249l-1.758,-1.72a0.87,0.87 0 0 0 -0.613,-0.24a0.913,0.913 0 0 0 -0.63,0.249a0.83,0.83 0 0 0 -0.245,0.599a0.837,0.837 0 0 0 0.254,0.607l1.75,1.711z" style="fill: rgb(255, 255, 255);"/>
  </g>
</svg>