<?xml version="1.0" encoding="utf-8"?>
<svg width="32" height="32" xmlns="http://www.w3.org/2000/svg">
  <defs></defs>
  <g transform="matrix(0.92494, 0, 0, 0.911664, -3.990191, 2.097155)">
    <path id="svg_1" clip-rule="evenodd" d="M 20.314 30.907 C 29.151 30.907 36.314 23.744 36.314 14.907 C 36.314 6.07 29.151 -1.093 20.314 -1.093 C 11.477 -1.093 4.314 6.07 4.314 14.907 C 4.314 23.744 11.477 30.907 20.314 30.907 Z" fill-rule="evenodd" style="fill: rgb(255, 225, 0);"></path>
    <g transform="matrix(1.057513, -0.012923, 0.013167, 1.077447, 4.704446, -5.169084)">
      <g transform="matrix(1.325183, 0, 0, 1.289766, -3.312955, -0.644883)">
        <g>
          <g transform="matrix(0.769241, 0, 0, 0.771188, 1.235964, 0.276652)">
            <title>Layer 1</title>
          </g>
        </g>
        <g transform="matrix(-0.292372, -0.956305, -0.956305, 0.292372, 30.160946, 22.356651)" style="">
          <g transform="matrix(0.769241, 0, 0, 0.771188, 1.235964, 0.276652)">
            <title>Layer 1</title>
          </g>
        </g>
      </g>
      <g>
        <path fill-rule="evenodd" d="M 18.61 13.873 L 8.006 21.439 L 1.989 16.408 C 0.882 15.483 1.173 14.64 2.628 14.526 L 10.513 13.91 L 13.556 6.768 C 14.116 5.455 15.018 5.445 15.582 6.768 L 18.61 13.873 Z" clip-rule="evenodd" style=""></path>
        <path fill-rule="evenodd" d="M 10.662 14.178 L 21.267 21.745 L 27.284 16.714 C 28.391 15.789 28.099 14.946 26.645 14.832 L 18.759 14.216 L 15.717 7.074 C 15.156 5.761 14.254 5.751 13.69 7.074 L 10.662 14.178 Z" clip-rule="evenodd" style=""></path>
        <path fill-rule="evenodd" d="M 14.57 26.062 L 10.56 13.874 L 2.654 14.502 C 1.201 14.617 0.926 15.467 2.034 16.39 L 8.043 21.4 L 6.19 28.919 C 5.851 30.302 6.576 30.827 7.829 30.077 L 14.57 26.062 Z" clip-rule="evenodd" style=""></path>
        <path d="M 13.078 6.828 C 13.245 6.446 13.476 6.086 13.702 5.871 C 13.954 5.63 14.385 5.44 14.707 5.442 C 15.029 5.442 15.457 5.634 15.707 5.875 C 15.933 6.09 16.162 6.45 16.329 6.827 L 19.216 13.604 L 26.698 14.19 C 27.119 14.227 27.541 14.329 27.822 14.472 C 28.134 14.632 28.452 14.969 28.554 15.266 C 28.656 15.564 28.605 16.019 28.452 16.328 C 28.313 16.606 28.034 16.931 27.716 17.203 L 21.3 22.568 L 9.851 14.399 L 10.05 13.931 L 13.078 6.828 Z M 11.473 13.958 L 21.233 20.923 L 26.852 16.225 C 27.088 16.034 27.187 15.908 27.26 15.764 C 27.316 15.65 27.311 15.716 27.296 15.672 C 27.282 15.628 27.323 15.675 27.206 15.615 C 27.058 15.539 26.899 15.494 26.592 15.475 L 18.302 14.827 L 15.104 7.322 C 14.99 7.042 14.898 6.908 14.778 6.794 C 14.684 6.704 14.747 6.731 14.702 6.73 C 14.658 6.73 14.721 6.704 14.63 6.792 C 14.511 6.905 14.417 7.041 14.303 7.321 L 11.473 13.958 Z" style="fill: none;"></path>
        <path d="M 8.176 30.627 C 7.811 30.841 7.406 31 7.094 31.045 C 6.744 31.095 6.281 31.002 6.022 30.818 C 5.761 30.633 5.53 30.232 5.473 29.894 C 5.421 29.591 5.453 29.169 5.546 28.768 L 7.303 21.633 L 1.603 16.879 C 1.287 16.608 1.006 16.285 0.865 16.009 C 0.709 15.7 0.656 15.246 0.753 14.948 C 0.849 14.648 1.165 14.309 1.476 14.146 C 1.756 14.002 2.179 13.899 2.6 13.86 L 11.031 13.189 L 15.359 26.349 L 14.915 26.613 L 8.176 30.627 Z M 13.781 25.777 L 10.091 14.559 L 2.709 15.144 C 2.403 15.165 2.245 15.21 2.099 15.285 C 1.985 15.346 2.03 15.295 2.014 15.339 C 2 15.383 1.994 15.321 2.054 15.436 C 2.128 15.583 2.229 15.711 2.465 15.9 L 8.781 21.168 L 6.835 29.069 C 6.758 29.36 6.753 29.521 6.781 29.681 C 6.802 29.809 6.768 29.751 6.803 29.778 C 6.839 29.803 6.772 29.787 6.899 29.769 C 7.065 29.745 7.222 29.689 7.483 29.528 L 13.781 25.777 Z" style="fill: none;"></path>
        <path fill-rule="evenodd" d="M 30.15 21.85 L 19.923 14.094 L 13.974 19.251 C 12.88 20.199 13.151 21.064 14.569 21.18 L 22.252 21.812 L 25.109 29.132 C 25.636 30.478 26.516 30.488 27.086 29.132 L 30.15 21.85 Z" clip-rule="evenodd" style="" transform="matrix(-0.299688, -0.954037, 0.954037, -0.299688, 7.133851, 49.475864)"></path>
        <path fill-rule="evenodd" d="M 10.245 13.241 L 20.708 5.484 L 26.501 10.641 C 27.566 11.589 27.268 12.454 25.848 12.57 L 18.145 13.202 L 15.066 20.522 C 14.499 21.868 13.618 21.879 13.089 20.522 L 10.245 13.241 Z" clip-rule="evenodd" style="" transform="matrix(-0.299688, -0.954037, 0.954037, -0.299688, 11.405743, 35.392025)"></path>
        <path fill-rule="evenodd" d="M 20.415 22.464 L 16.313 34.957 L 8.61 34.313 C 7.194 34.196 6.939 33.325 8.034 32.378 L 13.974 27.243 L 12.283 19.536 C 11.974 18.118 12.689 17.58 13.9 18.348 L 20.415 22.464 Z" clip-rule="evenodd" style="" transform="matrix(-0.299688, -0.954037, 0.954037, -0.299688, -7.214348, 47.658894)"></path>
        <ellipse style="paint-order: stroke; stroke: rgb(0, 0, 0);" cx="14.933" cy="20.083" rx="4" ry="4"></ellipse>
      </g>
    </g>
  </g>
</svg>