<?xml version="1.0" encoding="utf-8"?>
<svg width="32" height="32" xmlns="http://www.w3.org/2000/svg">
  <g>
    <title>Layer 1</title>
    <path id="svg_1" d="m16,32c8.837,0 16,-7.163 16,-16s-7.163,-16 -16,-16s-16,7.163 -16,16s7.163,16 16,16z" style="fill: rgb(255, 187, 208);"/>
    <path id="svg_2" d="m25.333,14.667a5.333,5.333 0 0 0 -5.333,-5.334a4.501,4.501 0 0 0 -4,2.667a4.5,4.5 0 0 0 -4,-2.667a5.324,5.324 0 0 0 -5.301,5.91a9.69,9.69 0 0 0 9.301,8.757a9.69,9.69 0 0 0 9.3,-8.756a5.347,5.347 0 0 0 0.033,-0.577z" style="fill-rule: evenodd; fill: rgb(129, 34, 56);"/>
  </g>
</svg>