<?xml version="1.0" encoding="utf-8"?>
<svg width="32" height="32" xmlns="http://www.w3.org/2000/svg">
 <g>
  <title>Layer 1</title>
  <path id="svg_1" clip-rule="evenodd" d="M 13.233 6 C 16.309 6 19.107 6.272 21.627 6.816 C 22.392 6.981 22.991 7.577 23.159 8.342 C 23.716 10.857 23.998 13.424 24 16 C 24 17.004 23.957 18.008 23.87 19.011 C 23.826 20.731 23.644 22.672 23.313 23.657 C 23.017 24.538 22.802 24.953 22.104 25.193 C 20.066 25.895 17.319 25.836 17.01 25.851 C 15.754 25.952 14.494 26.002 13.233 26 C 10.376 25.999 7.525 25.766 4.706 25.303 L 3.758 25.139 C 2.963 24.995 2.333 24.387 2.161 23.598 C 1.613 21.102 1.335 18.555 1.333 16 C 1.333 13.467 1.609 10.935 2.161 8.402 C 2.333 7.613 2.963 7.005 3.758 6.861 C 6.884 6.29 10.055 6.002 13.233 6 Z M 30.667 11.192 L 30.667 20.809 C 30.667 21.658 29.947 22.184 29.067 21.94 L 28.868 21.834 C 28.019 21.602 27.692 21.437 26.3 20.46 C 26.006 20.359 25.166 18.949 25.333 18.546 L 25.333 13.455 C 25.333 12.66 26.053 11.602 26.933 11.192 L 29.067 10.06 C 29.957 9.815 30.667 10.343 30.667 11.192 Z" fill-rule="evenodd" style="fill: none; stroke: currentColor;"/>
 </g>
</svg>