<svg width="32" height="32" xmlns="http://www.w3.org/2000/svg">

 <g>
  <title>Layer 1</title>
  <path id="svg_1" clip-rule="evenodd" d="m18.533,4.182a2.13,2.13 0 0 1 1.604,0.727l1.226,1.402a1.217,1.217 0 0 0 0.917,0.416l3.902,0a3.818,3.818 0 0 1 3.818,3.818l0,14a3.818,3.818 0 0 1 -3.818,3.819l-20.364,0a3.818,3.818 0 0 1 -3.818,-3.819l0,-14a3.818,3.818 0 0 1 3.818,-3.818l3.902,0a1.217,1.217 0 0 0 0.916,-0.416l1.227,-1.402a2.13,2.13 0 0 1 1.604,-0.727l5.066,0zm0,1.3l-5.066,0a0.83,0.83 0 0 0 -0.54,0.2l-0.085,0.083l-1.227,1.403a2.517,2.517 0 0 1 -1.715,0.852l-0.18,0.006l-3.903,0a2.518,2.518 0 0 0 -2.513,2.353l-0.004,0.166l0,14a2.518,2.518 0 0 0 2.353,2.513l0.165,0.006l20.364,0a2.518,2.518 0 0 0 2.513,-2.353l0.005,-0.166l0,-14a2.518,2.518 0 0 0 -2.353,-2.512l-0.165,-0.006l-3.902,0a2.517,2.517 0 0 1 -1.771,-0.727l-0.124,-0.131l-1.227,-1.403a0.83,0.83 0 0 0 -0.506,-0.275l-0.119,-0.008l0,-0.001zm-2.533,5.7a6.363,6.363 0 1 1 0,12.727a6.363,6.363 0 1 1 0,-12.727zm0,1.3a5.063,5.063 0 1 0 0,10.126a5.063,5.063 0 0 0 0,-10.126zm8.91,-2.573a1.273,1.273 0 1 1 -0.001,2.546a1.273,1.273 0 0 1 0,-2.546l0.001,0z" fill-rule="evenodd" fill="currentColor"/>
 </g>
</svg>